<svg width="48" height="48" viewBox="0 0 48 48" fill="none" xmlns="http://www.w3.org/2000/svg">
  <path d="M28.1678 25.6426L39.6486 37.1234C42.3913 33.8859 44.0524 29.8715 44.3992 25.6426H28.1678Z" fill="url(#paint0_linear_421_5278)"/>
  <path d="M22.8559 25.1437L22.3572 24.645V3.59998C19.1501 3.86279 16.0504 4.87963 13.3108 6.56763C10.5712 8.25563 8.26923 10.567 6.59239 13.3135C4.91556 16.0599 3.91135 19.1637 3.66159 22.3719C3.41184 25.58 3.92361 28.8018 5.1552 31.7747C6.3868 34.7475 8.30336 37.3874 10.7487 39.479C13.1941 41.5707 16.099 43.055 19.2268 43.8109C22.3546 44.5669 25.6168 44.5732 28.7475 43.8293C31.8782 43.0853 34.7889 41.6122 37.2422 39.53L22.8559 25.1437Z" fill="url(#paint1_linear_421_5278)"/>
  <path d="M25.7612 22.2382H44.3994C43.9976 17.4295 41.9049 12.9187 38.4928 9.50659C35.0806 6.09448 30.5699 4.00177 25.7612 3.59998V22.2382Z" fill="url(#paint2_linear_421_5278)"/>
  <defs>
    <linearGradient id="paint0_linear_421_5278" x1="9.2729" y1="7.63619" x2="23.397" y2="44.3367" gradientUnits="userSpaceOnUse">
      <stop stop-color="#5C636B" stop-opacity="0.8"/>
      <stop offset="1" stop-color="#B4C1D1"/>
    </linearGradient>
    <linearGradient id="paint1_linear_421_5278" x1="-2.85074" y1="-6.80379" x2="33.951" y2="43.4099" gradientUnits="userSpaceOnUse">
      <stop stop-color="#5C636B" stop-opacity="0.8"/>
      <stop offset="1" stop-color="#B4C1D1"/>
    </linearGradient>
    <linearGradient id="paint2_linear_421_5278" x1="22.1874" y1="-1.15469" x2="37.8053" y2="24.6779" gradientUnits="userSpaceOnUse">
      <stop stop-color="#5C636B" stop-opacity="0.8"/>
      <stop offset="1" stop-color="#B4C1D1"/>
    </linearGradient>
  </defs>
</svg>