<svg width="49" height="48" viewBox="0 0 49 48" fill="none" xmlns="http://www.w3.org/2000/svg">
  <path d="M46.0831 33.117V25.8664C46.0831 24.7865 45.775 23.7067 45.3117 22.7811L40.6957 14.9134C40.2328 13.9878 39.153 13.3707 38.0733 13.3707H31.1312C30.0514 13.3707 29.1256 14.2963 29.1256 15.3762V31.8829H27.5829V10.2853C27.5829 8.58837 26.1947 7.19995 24.4976 7.19995H2.89999V34.9682H7.52804C8.29939 32.3457 10.6134 30.3402 13.5443 30.3402C16.4756 30.3402 18.9437 32.3457 19.561 34.9682H30.8227C31.594 32.3457 33.908 30.3402 36.8389 30.3402C39.3074 30.3402 41.3125 31.7286 42.2383 33.7341C42.7012 34.5054 43.4609 34.9682 44.2322 34.9682C45.3117 34.9682 46.2375 34.0426 46.0831 33.117ZM32.211 24.1695V16.456H38.3817L42.8553 24.1695H32.211Z" fill="url(#paint0_linear_421_5289)"/>
  <path d="M36.8387 31.8828C34.2163 31.8828 32.2107 33.8883 32.2107 36.5109C32.2107 39.1334 34.2163 41.1389 36.8387 41.1389C39.4612 41.1389 41.4668 39.1334 41.4668 36.5109C41.4668 33.8883 39.4612 31.8828 36.8387 31.8828ZM36.8387 38.6706C35.6045 38.6706 34.6792 37.745 34.6792 36.5109C34.6792 35.2767 35.6046 34.3511 36.8387 34.3511C38.073 34.3511 38.9983 35.2767 38.9983 36.5109C38.9983 37.745 38.073 38.6706 36.8387 38.6706ZM13.6985 31.8828C11.076 31.8828 9.07043 33.8883 9.07043 36.5109C9.07043 39.1334 11.076 41.1389 13.6985 41.1389C16.3209 41.1389 18.3265 39.1334 18.3265 36.5109C18.3265 33.8883 16.3209 31.8828 13.6985 31.8828ZM13.6985 38.6706C12.4642 38.6706 11.5389 37.745 11.5389 36.5109C11.5389 35.2767 12.4643 34.3511 13.6985 34.3511C14.9326 34.3511 15.858 35.2767 15.858 36.5109C15.858 37.745 14.9327 38.6706 13.6985 38.6706Z" fill="url(#paint1_linear_421_5289)"/>
  <defs>
    <linearGradient id="paint0_linear_421_5289" x1="-21.7857" y1="-5.14518" x2="52.2715" y2="41.1406" gradientUnits="userSpaceOnUse">
      <stop stop-color="#5C636B" stop-opacity="0.8"/>
      <stop offset="1" stop-color="#B4C1D1"/>
    </linearGradient>
    <linearGradient id="paint1_linear_421_5289" x1="-7.12959" y1="17.2264" x2="46.1766" y2="42.5226" gradientUnits="userSpaceOnUse">
      <stop stop-color="#5C636B" stop-opacity="0.8"/>
      <stop offset="1" stop-color="#B4C1D1"/>
    </linearGradient>
  </defs>
</svg>